<svg width="74" height="82" viewBox="0 0 74 82" fill="none" xmlns="http://www.w3.org/2000/svg">
<g filter="url(#filter0_d_9_2871)">
<circle cx="37" cy="30" r="30" fill="#FCDC00"/>
</g>
<path fill-rule="evenodd" clip-rule="evenodd" d="M25.83 19.83C24 21.6625 24 24.6075 24 30.5C24 36.3925 24 39.3387 25.83 41.1688C27.6625 43 30.6075 43 36.5 43C42.3925 43 45.3387 43 47.1688 41.1688C49 39.34 49 36.3925 49 30.5C49 24.6075 49 21.6613 47.1688 19.83C45.34 18 42.3925 18 36.5 18C30.6075 18 27.6613 18 25.83 19.83ZM38.36 23.5575C38.5999 23.6219 38.8045 23.779 38.9287 23.9942C39.0529 24.2093 39.0867 24.465 39.0225 24.705L35.7875 36.78C35.7556 36.8989 35.7005 37.0104 35.6255 37.1081C35.5505 37.2057 35.457 37.2876 35.3503 37.3492C35.1349 37.4734 34.8789 37.507 34.6388 37.4425C34.3986 37.378 34.1938 37.2208 34.0696 37.0053C33.9453 36.7899 33.9118 36.5339 33.9762 36.2938L37.2113 24.22C37.2431 24.1009 37.2982 23.9893 37.3733 23.8915C37.4484 23.7938 37.542 23.7118 37.6488 23.6502C37.7557 23.5887 37.8736 23.5488 37.9958 23.5329C38.1181 23.517 38.2422 23.5254 38.3612 23.5575H38.36ZM40.2125 26.0875C40.3883 25.9119 40.6266 25.8133 40.875 25.8133C41.1234 25.8133 41.3617 25.9119 41.5375 26.0875L41.7987 26.3475C42.5925 27.1413 43.255 27.8038 43.71 28.4C44.19 29.03 44.5275 29.695 44.5275 30.5C44.5275 31.305 44.19 31.97 43.71 32.6C43.255 33.1962 42.5925 33.8587 41.7975 34.6525L41.5375 34.9125C41.4517 35.0046 41.3482 35.0785 41.2332 35.1297C41.1182 35.181 40.994 35.2085 40.8682 35.2107C40.7423 35.213 40.6172 35.1898 40.5005 35.1427C40.3838 35.0955 40.2777 35.0253 40.1887 34.9363C40.0997 34.8473 40.0295 34.7412 39.9823 34.6245C39.9352 34.5078 39.912 34.3827 39.9143 34.2568C39.9165 34.131 39.944 34.0068 39.9953 33.8918C40.0465 33.7768 40.1204 33.6733 40.2125 33.5875L40.4263 33.3725C41.2787 32.52 41.85 31.9475 42.2188 31.4625C42.5725 31 42.6525 30.73 42.6525 30.5C42.6525 30.27 42.5725 30 42.2188 29.5375C41.85 29.0537 41.2787 28.48 40.4263 27.6275L40.2125 27.4125C40.0369 27.2367 39.9383 26.9984 39.9383 26.75C39.9383 26.5016 40.0369 26.2633 40.2125 26.0875ZM31.4625 26.0875C31.6402 25.9219 31.8753 25.8317 32.1182 25.836C32.361 25.8403 32.5928 25.9387 32.7645 26.1105C32.9363 26.2822 33.0347 26.514 33.039 26.7568C33.0433 26.9997 32.9531 27.2348 32.7875 27.4125L32.5738 27.6275C31.7213 28.48 31.1513 29.0525 30.7812 29.5375C30.4275 30 30.3488 30.27 30.3488 30.5C30.3488 30.73 30.4275 31 30.7812 31.4625C31.1513 31.9463 31.7213 32.52 32.5738 33.3725L32.7887 33.5875C32.8782 33.674 32.9496 33.7775 32.9987 33.8919C33.0478 34.0063 33.0736 34.1293 33.0746 34.2538C33.0756 34.3783 33.0518 34.5017 33.0047 34.6169C32.9575 34.7321 32.8878 34.8368 32.7997 34.9247C32.7117 35.0127 32.607 35.0823 32.4917 35.1294C32.3765 35.1765 32.253 35.2001 32.1285 35.199C32.0041 35.1978 31.8811 35.1719 31.7667 35.1227C31.6524 35.0735 31.5489 35.0021 31.4625 34.9125L31.2025 34.6525C30.4075 33.8587 29.745 33.1962 29.29 32.6C28.81 31.97 28.4738 31.305 28.4738 30.5C28.4738 29.695 28.8112 29.03 29.29 28.4C29.745 27.8038 30.4075 27.1413 31.2025 26.3475L31.4625 26.0875Z" fill="white"/>
<defs>
<filter id="filter0_d_9_2871" x="0" y="0" width="74" height="82" filterUnits="userSpaceOnUse" color-interpolation-filters="sRGB">
<feFlood flood-opacity="0" result="BackgroundImageFix"/>
<feColorMatrix in="SourceAlpha" type="matrix" values="0 0 0 0 0 0 0 0 0 0 0 0 0 0 0 0 0 0 127 0" result="hardAlpha"/>
<feOffset dy="15"/>
<feGaussianBlur stdDeviation="3.5"/>
<feComposite in2="hardAlpha" operator="out"/>
<feColorMatrix type="matrix" values="0 0 0 0 0.988235 0 0 0 0 0.862745 0 0 0 0 0 0 0 0 0.15 0"/>
<feBlend mode="normal" in2="BackgroundImageFix" result="effect1_dropShadow_9_2871"/>
<feBlend mode="normal" in="SourceGraphic" in2="effect1_dropShadow_9_2871" result="shape"/>
</filter>
</defs>
</svg>
