<svg width="74" height="82" viewBox="0 0 74 82" fill="none" xmlns="http://www.w3.org/2000/svg">
<g filter="url(#filter0_d_27_3)">
<circle cx="37" cy="30" r="30" fill="#1DE2CF"/>
</g>
<path d="M46.6 36.6002C46.6 39.1693 42.4359 41.2502 37.3 41.2502C32.1641 41.2502 28 39.1693 28 36.6002V31.9199C28.5836 32.6372 29.4124 33.2324 30.3343 33.6927C32.1618 34.6065 34.6263 35.147 37.3 35.147C39.9738 35.147 42.4383 34.6065 44.2657 33.6939C45.1876 33.2324 46.0164 32.636 46.6 31.9199V36.6002Z" fill="white"/>
<path d="M37.3 28.1722C39.9738 28.1722 42.4383 27.6316 44.2657 26.719C45.1876 26.2575 46.0164 25.6612 46.6 24.9451V29.6253C46.6 30.2065 44.5238 31.4748 43.4857 32.134C41.9477 32.9024 39.7622 33.4034 37.3 33.4034C34.8378 33.4034 32.6523 32.9036 31.1143 32.134C29.7438 31.4481 28 30.2065 28 29.6253V24.9451C28.5836 25.6623 29.4124 26.2575 30.3343 26.7179C32.1618 27.6316 34.6263 28.1722 37.3 28.1722Z" fill="white"/>
<path d="M43.4856 25.1587C41.9477 25.9271 39.7622 26.4281 37.3 26.4281C34.8378 26.4281 32.6523 25.9283 31.1143 25.1587C30.5156 24.9239 29.1694 24.1787 28.2336 22.9743C28.1549 22.8731 28.0977 22.7568 28.0655 22.6327C28.0334 22.5086 28.0269 22.3792 28.0465 22.2524C28.0732 22.0804 28.1104 21.9025 28.1581 21.7921C28.9625 19.6345 32.7499 18 37.3 18C41.85 18 45.6374 19.6345 46.4419 21.7921C46.4895 21.9025 46.5267 22.0804 46.5535 22.2524C46.5729 22.3792 46.5663 22.5087 46.5339 22.6328C46.5015 22.757 46.4441 22.8732 46.3652 22.9743C45.4305 24.1787 44.0843 24.9239 43.4856 25.1587Z" fill="white"/>
<defs>
<filter id="filter0_d_27_3" x="0" y="0" width="74" height="82" filterUnits="userSpaceOnUse" color-interpolation-filters="sRGB">
<feFlood flood-opacity="0" result="BackgroundImageFix"/>
<feColorMatrix in="SourceAlpha" type="matrix" values="0 0 0 0 0 0 0 0 0 0 0 0 0 0 0 0 0 0 127 0" result="hardAlpha"/>
<feOffset dy="15"/>
<feGaussianBlur stdDeviation="3.5"/>
<feComposite in2="hardAlpha" operator="out"/>
<feColorMatrix type="matrix" values="0 0 0 0 0.113725 0 0 0 0 0.886275 0 0 0 0 0.811765 0 0 0 0.15 0"/>
<feBlend mode="normal" in2="BackgroundImageFix" result="effect1_dropShadow_27_3"/>
<feBlend mode="normal" in="SourceGraphic" in2="effect1_dropShadow_27_3" result="shape"/>
</filter>
</defs>
</svg>
