<svg width="74" height="82" viewBox="0 0 74 82" fill="none" xmlns="http://www.w3.org/2000/svg">
<g filter="url(#filter0_d_9_2896)">
<circle cx="37" cy="30" r="30" fill="#6001D3"/>
</g>
<path d="M29.569 34.5595L32.6463 34.7861V37.4146C32.6463 37.4146 26.8964 43.0776 18.5181 36.3726H21.3731L21.6896 33.7898C21.6896 33.7898 24.9479 37.0967 29.569 34.5595Z" fill="white"/>
<path d="M19.148 22.4165C19.148 22.4165 12.8948 28.2385 18.0148 35.6926L20.8729 35.9649L21.1451 33.201C21.1451 33.201 18.5182 28.8963 21.9119 25.4982L18.8684 25.2627L19.148 22.4165Z" fill="white"/>
<path d="M19.828 22.009C19.828 22.009 27.6279 16.9803 33.5574 23.051L30.9289 22.87L30.6567 25.8133C30.6567 25.8133 27.6662 22.19 22.6831 24.9995L19.647 24.8641L19.828 22.009Z" fill="white"/>
<path d="M31.3367 26.5402L31.5177 23.5042L34.2815 23.7764L42.6186 33.0642H39.765L39.4928 35.6471L31.3367 26.5402Z" fill="white"/>
<path d="M30.3403 34.062L40.8968 22.4165L43.7062 22.6888L43.5252 25.5438L33.1498 37.0966L33.1939 34.1061L30.3403 34.062Z" fill="white"/>
<path d="M41.3044 21.9971L44.2272 22.2355L44.0241 25.0229C44.0241 25.0229 48.3391 22.2693 51.5003 25.1921L54.5908 25.3275L54.869 22.6137C54.869 22.6137 50.0389 17.1685 41.3044 21.9971Z" fill="white"/>
<path d="M51.9416 25.6337L55.0322 25.8147L55.2706 23.0847C55.2706 23.0847 62.033 30.6183 54.7261 37.0967L51.7371 36.8892L52.0093 33.7986C52.0093 33.7986 56.0535 29.2702 51.9416 25.6337Z" fill="white"/>
<path d="M43.3442 33.7898L40.2227 33.5176L40.0476 36.2711C40.0476 36.2711 45.587 42.6597 53.9462 37.5618L51.0912 37.3307L51.3634 34.3741C51.3634 34.3741 47.7269 37.2895 43.3442 33.7898Z" fill="white"/>
<path d="M47.2941 29.0303V30.0605C47.2852 30.1006 47.2807 30.1416 47.2809 30.1826C47.2807 30.2242 47.2852 30.2657 47.2941 30.3063V31.9663H46.5229V29.0229L47.2941 29.0303Z" fill="white"/>
<path d="M47.9726 29.0304C47.7186 29.0633 47.4813 29.175 47.2942 29.3498C47.1651 29.4499 47.0582 29.5758 46.9805 29.7195C46.9027 29.8631 46.8556 30.0214 46.8423 30.1842C46.8537 30.3544 46.8997 30.5204 46.9773 30.6722C47.055 30.824 47.1628 30.9584 47.2942 31.0672C47.4581 31.2236 47.6704 31.3196 47.8961 31.3395C48.6128 31.3571 48.966 30.7405 48.966 30.1857C48.966 29.6309 48.5274 28.998 47.9726 29.0304ZM47.7386 30.6949C47.632 30.6902 47.5301 30.6493 47.4499 30.5789C47.3696 30.5085 47.3157 30.4129 47.2971 30.3078C47.2882 30.2672 47.2837 30.2258 47.2839 30.1842C47.2837 30.1431 47.2882 30.1022 47.2971 30.0621C47.3157 29.957 47.3696 29.8614 47.4499 29.791C47.5301 29.7206 47.632 29.6797 47.7386 29.675C47.8657 29.6868 47.9837 29.7457 48.0697 29.84C48.1556 29.9343 48.2033 30.0573 48.2033 30.1849C48.2033 30.3126 48.1556 30.4356 48.0697 30.5299C47.9837 30.6242 47.8657 30.683 47.7386 30.6949ZM50.4995 29.909C50.3876 29.8737 49.9741 29.8089 49.9741 29.6529C49.9741 29.5646 50.1007 29.5543 50.1625 29.5573C50.3391 29.5573 50.604 29.7677 50.7512 29.728C50.8821 29.6941 50.9969 29.3556 51.0455 29.2409C50.6738 29.0287 50.2408 28.9498 49.8181 29.0172C49.7137 29.0371 49.6148 29.0794 49.5283 29.1411C49.4418 29.2029 49.3697 29.2827 49.3169 29.375C49.2642 29.4673 49.2321 29.57 49.2229 29.6759C49.2136 29.7818 49.2274 29.8884 49.2633 29.9885C49.4502 30.4727 50.0241 30.2828 50.3141 30.5771C50.4333 30.7008 50.1875 30.7567 50.1066 30.7538C49.8576 30.7168 49.6197 30.6264 49.409 30.4888C49.3369 30.5919 49.1146 30.8376 49.1411 30.9657C49.1676 31.0937 49.4605 31.1894 49.5826 31.2276C49.9918 31.3601 50.6231 31.4101 50.9307 31.0378C51.3148 30.5904 50.9793 30.065 50.4995 29.909ZM44.5112 28.2151C44.191 28.2151 43.878 28.31 43.6118 28.4879C43.3456 28.6658 43.1381 28.9186 43.0156 29.2144C42.893 29.5102 42.861 29.8357 42.9234 30.1498C42.9859 30.4638 43.1401 30.7523 43.3665 30.9787C43.5929 31.2051 43.8813 31.3592 44.1954 31.4217C44.5094 31.4842 44.8349 31.4521 45.1307 31.3296C45.4265 31.207 45.6793 30.9996 45.8572 30.7333C46.0351 30.4671 46.1301 30.1541 46.1301 29.8339C46.1301 29.4046 45.9595 28.9928 45.6559 28.6892C45.3523 28.3856 44.9405 28.2151 44.5112 28.2151ZM44.5112 30.6596C44.3471 30.6593 44.1868 30.6103 44.0505 30.519C43.9141 30.4276 43.808 30.2978 43.7454 30.1462C43.6828 29.9945 43.6666 29.8276 43.6988 29.6667C43.731 29.5058 43.8101 29.358 43.9263 29.2421C44.0424 29.1262 44.1903 29.0472 44.3513 29.0153C44.5122 28.9834 44.6791 29 44.8306 29.0628C44.9822 29.1257 45.1118 29.2321 45.2029 29.3685C45.2941 29.505 45.3427 29.6654 45.3427 29.8295C45.3427 29.9388 45.3211 30.047 45.2792 30.1479C45.2373 30.2487 45.1759 30.3404 45.0985 30.4175C45.0212 30.4946 44.9293 30.5557 44.8283 30.5972C44.7272 30.6388 44.619 30.66 44.5097 30.6596H44.5112Z" fill="white"/>
<path d="M29.1791 28.9936H28.2564L29.2321 31.5455H29.653V30.4579L29.1791 28.9936ZM30.1284 28.998H31.0511L30.0739 31.5499H29.653V30.4624L30.1284 28.998ZM24.6993 28.6345C24.3894 28.4193 24.0298 28.2866 23.6544 28.2489C23.157 28.2018 22.6242 28.2622 22.1636 28.2622V31.5426H22.1856C22.274 31.5529 22.3623 31.5617 22.452 31.5676C22.8057 31.5969 23.1614 31.5939 23.5146 31.5588C24.1901 31.4837 24.6242 31.2644 24.8906 30.9789C25.1266 30.7132 25.2598 30.3718 25.2659 30.0164V29.9384V29.8972C25.26 29.4307 25.1261 28.9612 24.6993 28.6345ZM23.9487 30.639C23.6706 30.795 23.3321 30.7567 23.026 30.7567V29.0481C23.3512 29.0481 23.7177 29.0054 24.0032 29.2055C24.4771 29.5396 24.4594 30.3505 23.9443 30.639H23.9487ZM27.8517 30.895C27.7766 30.8317 27.6809 30.7243 27.5794 30.7067C27.4175 30.6846 27.2159 30.9024 27.0363 30.92C26.7567 30.948 26.5551 30.7552 26.4477 30.5227H28.1489C28.1489 30.0518 28.1092 29.5558 27.7074 29.232C26.9613 28.6227 25.7368 29.0731 25.6 30.0341C25.4528 31.0466 26.249 31.7 27.2188 31.5735C27.4593 31.5395 27.685 31.4374 27.8693 31.2791C27.9355 31.2203 28.0327 31.1393 27.9841 31.0437C27.9494 30.9864 27.9045 30.9361 27.8517 30.895ZM27.3086 30.0606H26.4403C26.4591 29.9591 26.5128 29.8675 26.5921 29.8015C26.6714 29.7355 26.7713 29.6993 26.8745 29.6993C26.9776 29.6993 27.0775 29.7355 27.1568 29.8015C27.2361 29.8675 27.2898 29.9591 27.3086 30.0606Z" fill="white"/>
<defs>
<filter id="filter0_d_9_2896" x="0" y="0" width="74" height="82" filterUnits="userSpaceOnUse" color-interpolation-filters="sRGB">
<feFlood flood-opacity="0" result="BackgroundImageFix"/>
<feColorMatrix in="SourceAlpha" type="matrix" values="0 0 0 0 0 0 0 0 0 0 0 0 0 0 0 0 0 0 127 0" result="hardAlpha"/>
<feOffset dy="15"/>
<feGaussianBlur stdDeviation="3.5"/>
<feComposite in2="hardAlpha" operator="out"/>
<feColorMatrix type="matrix" values="0 0 0 0 0.376471 0 0 0 0 0.00392157 0 0 0 0 0.827451 0 0 0 0.15 0"/>
<feBlend mode="normal" in2="BackgroundImageFix" result="effect1_dropShadow_9_2896"/>
<feBlend mode="normal" in="SourceGraphic" in2="effect1_dropShadow_9_2896" result="shape"/>
</filter>
</defs>
</svg>
