<svg width="74" height="82" viewBox="0 0 74 82" fill="none" xmlns="http://www.w3.org/2000/svg">
<g filter="url(#filter0_d_9_2877)">
<circle cx="37" cy="30" r="30" fill="#00B0FC"/>
</g>
<path d="M37.2356 27.7949C38.408 27.7949 39.364 28.751 39.364 29.9461C39.364 31.0843 38.408 32.0517 37.2356 32.0517C36.0633 32.0517 35.1072 31.0843 35.1072 29.9461C35.1072 28.751 36.0633 27.7949 37.2356 27.7949ZM31.9658 39.0517C32.6828 39.4842 34.2535 38.824 36.0633 37.1167C35.4714 36.4452 34.8909 35.7167 34.3446 34.9541C33.4274 34.8664 32.5155 34.7296 31.6129 34.5444C31.0324 36.9801 31.2487 38.6533 31.9658 39.0517ZM32.7739 32.5184L32.4438 31.9379C32.3186 32.268 32.1934 32.5981 32.1137 32.9168C32.421 32.9851 32.7625 33.042 33.1153 33.0989L32.7739 32.5184ZM40.2177 31.6534L41.1396 29.9461L40.2177 28.2388C39.8762 27.6355 39.512 27.1006 39.1819 26.5656C38.5673 26.5315 37.9185 26.5315 37.2356 26.5315C36.5527 26.5315 35.9039 26.5315 35.2893 26.5656C34.9592 27.1006 34.595 27.6355 34.2535 28.2388L33.3316 29.9461L34.2535 31.6534C34.595 32.2566 34.9592 32.7916 35.2893 33.3265C35.9039 33.3607 36.5527 33.3607 37.2356 33.3607C37.9185 33.3607 38.5673 33.3607 39.1819 33.3265C39.512 32.7916 39.8762 32.2566 40.2177 31.6534ZM37.2356 24.0047C37.0194 24.2551 36.7917 24.5169 36.5641 24.8242H37.9072C37.6795 24.5169 37.4519 24.2551 37.2356 24.0047ZM37.2356 35.8875C37.4519 35.6371 37.6795 35.3753 37.9072 35.068H36.5641C36.7917 35.3753 37.0194 35.6371 37.2356 35.8875ZM42.4941 20.8405C41.7884 20.408 40.2177 21.0681 38.408 22.7754C38.9998 23.447 39.5803 24.1754 40.1266 24.938C41.06 25.0291 41.9819 25.1657 42.8583 25.3478C43.4388 22.912 43.2225 21.2389 42.4941 20.8405ZM41.6973 27.3738L42.0274 27.9542C42.1526 27.6242 42.2778 27.2941 42.3575 26.9754C42.0502 26.9071 41.7087 26.8502 41.3559 26.7933L41.6973 27.3738ZM43.3477 19.3495C45.0209 20.3055 45.203 22.821 44.4973 25.7575C47.3883 26.6112 49.4712 28.0225 49.4712 29.9461C49.4712 31.8696 47.3883 33.281 44.4973 34.1346C45.203 37.0712 45.0209 39.5866 43.3477 40.5427C41.686 41.4988 39.421 40.4061 37.2356 38.3232C35.0503 40.4061 32.7853 41.4988 31.1121 40.5427C29.4503 39.5866 29.2682 37.0712 29.9739 34.1346C27.0829 33.281 25 31.8696 25 29.9461C25 28.0225 27.0829 26.6112 29.9739 25.7575C29.2682 22.821 29.4503 20.3055 31.1121 19.3495C32.7853 18.3934 35.0503 19.486 37.2356 21.5689C39.421 19.486 41.686 18.3934 43.3477 19.3495ZM43.0177 29.9461C43.4046 30.7997 43.7461 31.6534 44.0307 32.5184C46.4209 31.8013 47.7639 30.777 47.7639 29.9461C47.7639 29.1152 46.4209 28.0908 44.0307 27.3738C43.7461 28.2388 43.4046 29.0924 43.0177 29.9461ZM31.4536 29.9461C31.0666 29.0924 30.7251 28.2388 30.4406 27.3738C28.0504 28.0908 26.7073 29.1152 26.7073 29.9461C26.7073 30.777 28.0504 31.8013 30.4406 32.5184C30.7251 31.6534 31.0666 30.7997 31.4536 29.9461ZM41.6973 32.5184L41.3559 33.0989C41.7087 33.042 42.0502 32.9851 42.3575 32.9168C42.2778 32.5981 42.1526 32.268 42.0274 31.9379L41.6973 32.5184ZM38.408 37.1167C40.2177 38.824 41.7884 39.4842 42.4941 39.0517C43.2225 38.6533 43.4388 36.9801 42.8583 34.5444C41.9819 34.7265 41.06 34.8631 40.1266 34.9541C39.5803 35.7167 38.9998 36.4452 38.408 37.1167ZM32.7739 27.3738L33.1153 26.7933C32.7625 26.8502 32.421 26.9071 32.1137 26.9754C32.1934 27.2941 32.3186 27.6242 32.4438 27.9542L32.7739 27.3738ZM36.0633 22.7754C34.2535 21.0681 32.6828 20.408 31.9658 20.8405C31.2487 21.2389 31.0324 22.912 31.6129 25.3478C32.5155 25.1626 33.4274 25.0258 34.3446 24.938C34.8909 24.1754 35.4714 23.447 36.0633 22.7754Z" fill="white"/>
<defs>
<filter id="filter0_d_9_2877" x="0" y="0" width="74" height="82" filterUnits="userSpaceOnUse" color-interpolation-filters="sRGB">
<feFlood flood-opacity="0" result="BackgroundImageFix"/>
<feColorMatrix in="SourceAlpha" type="matrix" values="0 0 0 0 0 0 0 0 0 0 0 0 0 0 0 0 0 0 127 0" result="hardAlpha"/>
<feOffset dy="15"/>
<feGaussianBlur stdDeviation="3.5"/>
<feComposite in2="hardAlpha" operator="out"/>
<feColorMatrix type="matrix" values="0 0 0 0 0 0 0 0 0 0.690196 0 0 0 0 0.988235 0 0 0 0.15 0"/>
<feBlend mode="normal" in2="BackgroundImageFix" result="effect1_dropShadow_9_2877"/>
<feBlend mode="normal" in="SourceGraphic" in2="effect1_dropShadow_9_2877" result="shape"/>
</filter>
</defs>
</svg>
