<svg width="74" height="82" viewBox="0 0 74 82" fill="none" xmlns="http://www.w3.org/2000/svg">
<g filter="url(#filter0_d_27_4)">
<circle cx="37" cy="30" r="30" fill="#FD346E"/>
</g>
<path d="M30.6719 43.5331L42.6933 43.5331C42.9534 43.5331 43.211 43.4819 43.4513 43.3824C43.6916 43.2829 43.9099 43.137 44.0938 42.9531C44.2777 42.7691 44.4236 42.5508 44.5231 42.3105C44.6227 42.0702 44.6739 41.8126 44.6738 41.5526L44.6738 36.5746L47.8455 29.5942C47.9903 29.2777 48.0492 28.9286 48.0161 28.5822C47.9831 28.2357 47.8593 27.9041 47.6573 27.6207L38.5704 14.8983C38.5094 14.813 38.423 14.7492 38.3235 14.7162C38.224 14.6831 38.1166 14.6825 38.0168 14.7144C37.9169 14.7464 37.8298 14.8092 37.7679 14.8938C37.706 14.9784 37.6726 15.0805 37.6724 15.1853L37.6724 25.1623C38.1593 25.3331 38.5929 25.6285 38.9301 26.0191C39.3452 26.4993 39.5955 27.0998 39.6445 27.7326C39.6934 28.3655 39.5384 28.9973 39.2021 29.5356C38.8657 30.0739 38.3658 30.4903 37.7756 30.7238C37.1854 30.9573 36.5359 30.9956 35.9223 30.8331C35.3088 30.6706 34.7634 30.3158 34.3661 29.8208C33.9689 29.3257 33.7407 28.7165 33.7149 28.0823C33.6891 27.4481 33.8672 26.8223 34.223 26.2967C34.5788 25.771 35.0936 25.3732 35.6919 25.1614L35.6919 15.1844C35.6918 15.0796 35.6584 14.9775 35.5965 14.8929C35.5346 14.8083 35.4475 14.7455 35.3476 14.7136C35.2477 14.6817 35.1403 14.6823 35.0409 14.7153C34.9414 14.7483 34.8549 14.8121 34.794 14.8974L25.7062 27.6207C25.5042 27.9034 25.3802 28.2342 25.3466 28.58C25.3129 28.9258 25.3709 29.2744 25.5145 29.5907L28.6914 36.5781L28.6905 41.5517C28.6905 41.8118 28.7417 42.0693 28.8412 42.3096C28.9407 42.5499 29.0866 42.7683 29.2705 42.9522C29.4545 43.1361 29.6728 43.282 29.9131 43.3815C30.1534 43.481 30.411 43.5322 30.671 43.5322L30.6719 43.5331ZM30.671 37.3517L42.6924 37.3517L42.6924 41.5526L30.671 41.5526L30.671 37.3517Z" fill="white"/>
<defs>
<filter id="filter0_d_27_4" x="0" y="0" width="74" height="82" filterUnits="userSpaceOnUse" color-interpolation-filters="sRGB">
<feFlood flood-opacity="0" result="BackgroundImageFix"/>
<feColorMatrix in="SourceAlpha" type="matrix" values="0 0 0 0 0 0 0 0 0 0 0 0 0 0 0 0 0 0 127 0" result="hardAlpha"/>
<feOffset dy="15"/>
<feGaussianBlur stdDeviation="3.5"/>
<feComposite in2="hardAlpha" operator="out"/>
<feColorMatrix type="matrix" values="0 0 0 0 0.992157 0 0 0 0 0.203922 0 0 0 0 0.431373 0 0 0 0.15 0"/>
<feBlend mode="normal" in2="BackgroundImageFix" result="effect1_dropShadow_27_4"/>
<feBlend mode="normal" in="SourceGraphic" in2="effect1_dropShadow_27_4" result="shape"/>
</filter>
</defs>
</svg>
