<svg width="74" height="82" viewBox="0 0 74 82" fill="none" xmlns="http://www.w3.org/2000/svg">
<g filter="url(#filter0_d_27_2)">
<circle cx="37" cy="30" r="30" fill="#FF5722"/>
</g>
<path d="M37.9556 17C38.3525 17 38.7076 17.247 38.8412 17.6169L39.7943 20.2589C40.1358 20.3439 40.4288 20.429 40.6772 20.5181C40.9485 20.6153 41.2982 20.7624 41.7302 20.9636L43.9495 19.7891C44.1307 19.6931 44.3381 19.6585 44.5406 19.6903C44.7431 19.7222 44.9298 19.8189 45.0727 19.9659L47.0248 21.9841C47.284 22.2528 47.3569 22.6456 47.2111 22.9885L46.1703 25.428C46.3431 25.7452 46.4808 26.0165 46.5861 26.2433C46.6995 26.4904 46.8399 26.8306 47.0073 27.2693L49.4332 28.3088C49.7977 28.4641 50.0231 28.8286 49.9988 29.2187L49.8206 32.0199C49.8084 32.2019 49.7431 32.3763 49.6327 32.5215C49.5223 32.6667 49.3717 32.7763 49.1996 32.8367L46.902 33.6534C46.8358 33.9706 46.767 34.242 46.6941 34.4715C46.5765 34.8259 46.4422 35.1746 46.2918 35.5164L47.446 38.0678C47.5275 38.2471 47.5494 38.4478 47.5086 38.6404C47.4678 38.833 47.3664 39.0075 47.2192 39.1384L45.0241 41.0986C44.8796 41.2271 44.6992 41.3084 44.5071 41.3316C44.3151 41.3547 44.1205 41.3187 43.9495 41.2282L41.687 40.0294C41.333 40.2168 40.9678 40.3823 40.5935 40.5248L39.6053 40.8947L38.7278 43.3247C38.6628 43.5026 38.5455 43.6568 38.3913 43.7669C38.2371 43.877 38.0532 43.9379 37.8638 43.9416L35.2988 43.9997C35.1044 44.0048 34.9131 43.9495 34.7514 43.8414C34.5897 43.7334 34.4654 43.5778 34.3957 43.3962L33.3616 40.6598C33.0088 40.5392 32.6595 40.4087 32.314 40.2683C32.0315 40.146 31.7532 40.0141 31.4797 39.8728L28.9148 40.969C28.7458 41.0411 28.5594 41.0625 28.3785 41.0306C28.1975 40.9987 28.0297 40.9149 27.8955 40.7894L25.9975 39.0088C25.8561 38.8768 25.7599 38.7037 25.7224 38.514C25.6848 38.3243 25.7078 38.1276 25.7882 37.9517L26.8911 35.5488C26.7445 35.2642 26.6085 34.9742 26.4835 34.6794C26.3375 34.3186 26.2025 33.9535 26.0785 33.5846L23.662 32.8488C23.4656 32.7894 23.2942 32.6669 23.1746 32.5001C23.055 32.3334 22.9938 32.1319 23.0005 31.9268L23.095 29.3335C23.1017 29.1642 23.1546 29.0001 23.2479 28.8588C23.3411 28.7174 23.4713 28.6043 23.6242 28.5316L26.1595 27.3139C26.2769 26.8832 26.3795 26.5484 26.47 26.3041C26.5973 25.9777 26.7387 25.657 26.8938 25.3429L25.795 23.0209C25.7116 22.8446 25.6862 22.6464 25.7226 22.4547C25.759 22.2631 25.8552 22.0879 25.9975 21.9544L27.8928 20.1644C28.0257 20.039 28.192 19.9548 28.3716 19.9217C28.5512 19.8887 28.7366 19.9083 28.9053 19.9781L31.4676 21.0365C31.7511 20.8475 32.0076 20.6949 32.2398 20.5721C32.5165 20.4249 32.8864 20.271 33.3522 20.105L34.2432 17.6196C34.309 17.4378 34.4294 17.2806 34.5879 17.1697C34.7464 17.0588 34.9353 16.9996 35.1287 17H37.9556ZM36.5327 26.4755C34.2823 26.4755 32.4585 28.2778 32.4585 30.5025C32.4585 32.7273 34.2823 34.5309 36.5327 34.5309C38.7818 34.5309 40.6056 32.7273 40.6056 30.5025C40.6056 28.2778 38.7832 26.4755 36.5327 26.4755Z" fill="white"/>
<defs>
<filter id="filter0_d_27_2" x="0" y="0" width="74" height="82" filterUnits="userSpaceOnUse" color-interpolation-filters="sRGB">
<feFlood flood-opacity="0" result="BackgroundImageFix"/>
<feColorMatrix in="SourceAlpha" type="matrix" values="0 0 0 0 0 0 0 0 0 0 0 0 0 0 0 0 0 0 127 0" result="hardAlpha"/>
<feOffset dy="15"/>
<feGaussianBlur stdDeviation="3.5"/>
<feComposite in2="hardAlpha" operator="out"/>
<feColorMatrix type="matrix" values="0 0 0 0 1 0 0 0 0 0.341176 0 0 0 0 0.133333 0 0 0 0.15 0"/>
<feBlend mode="normal" in2="BackgroundImageFix" result="effect1_dropShadow_27_2"/>
<feBlend mode="normal" in="SourceGraphic" in2="effect1_dropShadow_27_2" result="shape"/>
</filter>
</defs>
</svg>
