<svg width="42" height="42" viewBox="0 0 42 42" fill="none" xmlns="http://www.w3.org/2000/svg">
<g clip-path="url(#clip0_362_629)">
<path d="M20.9711 41.9417C32.5529 41.9417 41.9419 32.5527 41.9419 20.9708C41.9419 9.38896 32.5529 0 20.9711 0C9.38921 0 0.000244141 9.38896 0.000244141 20.9708C0.000244141 32.5527 9.38921 41.9417 20.9711 41.9417Z" fill="#2B59FF"/>
<path fill-rule="evenodd" clip-rule="evenodd" d="M33.2275 28.0139L31.5649 29.6639C31.1285 30.0971 30.4095 30.0971 29.9731 29.6639L28.6335 28.3344C27.9422 28.7 27.2005 28.9804 26.4185 29.1607V30.8833C26.4185 31.4967 25.9114 32 25.2933 32H22.9421C22.324 32 21.8169 31.4967 21.8169 30.8833V29.0029C21.05 28.7726 20.3259 28.4446 19.6624 28.029L18.4338 29.2483C17.9974 29.6815 17.2784 29.6815 16.842 29.2483L16.0902 28.5047L16.1104 28.4821L19.4076 24.7364C20.6135 26.1386 22.4097 27.0299 24.4128 27.0299C28.0457 27.0299 30.9923 24.1055 30.9923 20.5025C30.9923 16.897 28.0457 13.9726 24.4128 13.9726C22.5939 13.9726 20.9465 14.7062 19.7558 15.8905L18.5423 15.8454L15.4721 13.1313C15.5099 13.0787 15.5503 13.0311 15.5957 12.9836L17.2582 11.3336C17.6947 10.9004 18.4137 10.9004 18.8501 11.3336L20.1897 12.6631C20.8809 12.295 21.6226 12.0146 22.4047 11.8368V10.1142C22.4097 9.50327 22.9168 9 23.5349 9H25.8836C26.5017 9 27.0088 9.50327 27.0088 10.1167V11.9971C27.7757 12.2274 28.4998 12.5579 29.1632 12.971L30.3918 11.7517C30.8283 11.3185 31.5473 11.3185 31.9837 11.7517L33.6462 13.4017C34.0827 13.8349 34.0827 14.5484 33.6462 14.9816L32.3066 16.3111C32.6775 16.9972 32.96 17.7333 33.1392 18.5095H34.8748C35.4904 18.5095 36 19.0127 36 19.6262V21.9597C36 22.5732 35.4929 23.0764 34.8748 23.0764H32.9827C32.7507 23.8376 32.4202 24.5562 32.0014 25.2147L33.23 26.434C33.6664 26.8672 33.6664 27.5783 33.2275 28.0139ZM24.433 18.3793C25.6137 18.3793 26.5698 19.3282 26.5698 20.5C26.5698 21.6718 25.6137 22.6207 24.433 22.6207C23.2524 22.6207 22.2962 21.6718 22.2962 20.5C22.2962 19.3282 23.2549 18.3793 24.433 18.3793ZM20.172 20.3698L14.3671 26.9673L14.1729 23.8726C10.2045 23.3093 7.16455 24.3909 5 27.4956C5.02523 21.3863 9.02637 18.1915 13.7843 17.7007L13.585 14.5434L20.172 20.3698Z" fill="white"/>
</g>
<defs>
<clipPath id="clip0_362_629">
<rect width="41.9417" height="41.9417" fill="white"/>
</clipPath>
</defs>
</svg>
