<svg width="13" height="17" viewBox="0 0 13 17" fill="none" xmlns="http://www.w3.org/2000/svg">
<path d="M6.5 8.5C6.94688 8.5 7.32956 8.3334 7.64806 8.0002C7.96602 7.66757 8.125 7.2675 8.125 6.8C8.125 6.3325 7.96602 5.93215 7.64806 5.59895C7.32956 5.26632 6.94688 5.1 6.5 5.1C6.05312 5.1 5.67071 5.26632 5.35275 5.59895C5.03425 5.93215 4.875 6.3325 4.875 6.8C4.875 7.2675 5.03425 7.66757 5.35275 8.0002C5.67071 8.3334 6.05312 8.5 6.5 8.5ZM6.5 17C4.31979 15.0592 2.69154 13.2563 1.61525 11.5915C0.538417 9.92715 0 8.38667 0 6.97C0 4.845 0.653521 3.15208 1.96056 1.89125C3.26706 0.630417 4.78021 0 6.5 0C8.21979 0 9.73294 0.630417 11.0394 1.89125C12.3465 3.15208 13 4.845 13 6.97C13 8.38667 12.4619 9.92715 11.3856 11.5915C10.3087 13.2563 8.68021 15.0592 6.5 17Z" fill="#AEABC9"/>
</svg>
