<svg width="20" height="20" viewBox="0 0 20 20" fill="none" xmlns="http://www.w3.org/2000/svg">
<path d="M19 6V14C19 15.3261 18.4732 16.5979 17.5355 17.5355C16.5979 18.4732 15.3261 19 14 19H6C4.67392 19 3.40215 18.4732 2.46447 17.5355C1.52678 16.5979 1 15.3261 1 14V6C1 4.67392 1.52678 3.40215 2.46447 2.46447C3.40215 1.52678 4.67392 1 6 1H14C15.3261 1 16.5979 1.52678 17.5355 2.46447C18.4732 3.40215 19 4.67392 19 6Z" stroke="#AEABC9" stroke-width="1.5" stroke-linecap="round" stroke-linejoin="round"/>
<path d="M7.099 9.826C9.634 9.826 9.634 14 7.099 14H4V9.826M7.099 9.826H4M7.099 9.826C9.634 9.826 9.634 6 7.099 6H4V9.826M11 11.5C11 10.837 11.2634 10.2011 11.7322 9.73223C12.2011 9.26339 12.837 9 13.5 9C14.163 9 14.7989 9.26339 15.2678 9.73223C15.7366 10.2011 16 10.837 16 11.5H11ZM11 11.5C11 12.163 11.2634 12.7989 11.7322 13.2678C12.2011 13.7366 12.837 14 13.5 14C14.428 14 14.99 13.678 15.313 13.38M15 6.5H12" stroke="#AEABC9" stroke-width="1.5" stroke-linecap="round" stroke-linejoin="round"/>
</svg>
