<svg width="16" height="24" viewBox="0 0 36 47" fill="none" xmlns="http://www.w3.org/2000/svg">
<path d="M3.7601 0.583252C3.00036 0.583252 2.27174 0.885057 1.73453 1.42227C1.19731 1.95949 0.895508 2.68811 0.895508 3.44785V43.5522C0.895508 44.3119 1.19731 45.0405 1.73453 45.5777C2.27174 46.1149 3.00036 46.4167 3.7601 46.4167H12.3539V36.3907C12.3539 36.0108 12.5048 35.6465 12.7734 35.3779C13.042 35.1093 13.4063 34.9584 13.7862 34.9584H22.38C22.7598 34.9584 23.1241 35.1093 23.3927 35.3779C23.6614 35.6465 23.8123 36.0108 23.8123 36.3907V46.4167H32.406C33.1658 46.4167 33.8944 46.1149 34.4316 45.5777C34.9688 45.0405 35.2706 44.3119 35.2706 43.5522V3.44785C35.2706 2.68811 34.9688 1.95949 34.4316 1.42227C33.8944 0.885057 33.1658 0.583252 32.406 0.583252L3.7601 0.583252ZM6.62469 7.74474C6.62469 7.36487 6.7756 7.00056 7.04421 6.73195C7.31281 6.46334 7.67712 6.31244 8.05699 6.31244H10.9216C11.3015 6.31244 11.6658 6.46334 11.9344 6.73195C12.203 7.00056 12.3539 7.36487 12.3539 7.74474V10.6093C12.3539 10.9892 12.203 11.3535 11.9344 11.6221C11.6658 11.8907 11.3015 12.0416 10.9216 12.0416H8.05699C7.67712 12.0416 7.31281 11.8907 7.04421 11.6221C6.7756 11.3535 6.62469 10.9892 6.62469 10.6093V7.74474ZM15.2185 7.74474C15.2185 7.36487 15.3694 7.00056 15.638 6.73195C15.9066 6.46334 16.2709 6.31244 16.6508 6.31244H19.5154C19.8952 6.31244 20.2595 6.46334 20.5282 6.73195C20.7968 7.00056 20.9477 7.36487 20.9477 7.74474V10.6093C20.9477 10.9892 20.7968 11.3535 20.5282 11.6221C20.2595 11.8907 19.8952 12.0416 19.5154 12.0416H16.6508C16.2709 12.0416 15.9066 11.8907 15.638 11.6221C15.3694 11.3535 15.2185 10.9892 15.2185 10.6093V7.74474ZM25.2446 6.31244H28.1091C28.489 6.31244 28.8533 6.46334 29.1219 6.73195C29.3905 7.00056 29.5414 7.36487 29.5414 7.74474V10.6093C29.5414 10.9892 29.3905 11.3535 29.1219 11.6221C28.8533 11.8907 28.489 12.0416 28.1091 12.0416H25.2446C24.8647 12.0416 24.5004 11.8907 24.2318 11.6221C23.9632 11.3535 23.8123 10.9892 23.8123 10.6093V7.74474C23.8123 7.36487 23.9632 7.00056 24.2318 6.73195C24.5004 6.46334 24.8647 6.31244 25.2446 6.31244ZM6.62469 16.3385C6.62469 15.9586 6.7756 15.5943 7.04421 15.3257C7.31281 15.0571 7.67712 14.9062 8.05699 14.9062H10.9216C11.3015 14.9062 11.6658 15.0571 11.9344 15.3257C12.203 15.5943 12.3539 15.9586 12.3539 16.3385V19.2031C12.3539 19.583 12.203 19.9473 11.9344 20.2159C11.6658 20.4845 11.3015 20.6354 10.9216 20.6354H8.05699C7.67712 20.6354 7.31281 20.4845 7.04421 20.2159C6.7756 19.9473 6.62469 19.583 6.62469 19.2031V16.3385ZM16.6508 14.9062H19.5154C19.8952 14.9062 20.2595 15.0571 20.5282 15.3257C20.7968 15.5943 20.9477 15.9586 20.9477 16.3385V19.2031C20.9477 19.583 20.7968 19.9473 20.5282 20.2159C20.2595 20.4845 19.8952 20.6354 19.5154 20.6354H16.6508C16.2709 20.6354 15.9066 20.4845 15.638 20.2159C15.3694 19.9473 15.2185 19.583 15.2185 19.2031V16.3385C15.2185 15.9586 15.3694 15.5943 15.638 15.3257C15.9066 15.0571 16.2709 14.9062 16.6508 14.9062ZM23.8123 16.3385C23.8123 15.9586 23.9632 15.5943 24.2318 15.3257C24.5004 15.0571 24.8647 14.9062 25.2446 14.9062H28.1091C28.489 14.9062 28.8533 15.0571 29.1219 15.3257C29.3905 15.5943 29.5414 15.9586 29.5414 16.3385V19.2031C29.5414 19.583 29.3905 19.9473 29.1219 20.2159C28.8533 20.4845 28.489 20.6354 28.1091 20.6354H25.2446C24.8647 20.6354 24.5004 20.4845 24.2318 20.2159C23.9632 19.9473 23.8123 19.583 23.8123 19.2031V16.3385ZM8.05699 23.5H10.9216C11.3015 23.5 11.6658 23.6509 11.9344 23.9195C12.203 24.1881 12.3539 24.5524 12.3539 24.9323V27.7969C12.3539 28.1768 12.203 28.5411 11.9344 28.8097C11.6658 29.0783 11.3015 29.2292 10.9216 29.2292H8.05699C7.67712 29.2292 7.31281 29.0783 7.04421 28.8097C6.7756 28.5411 6.62469 28.1768 6.62469 27.7969V24.9323C6.62469 24.5524 6.7756 24.1881 7.04421 23.9195C7.31281 23.6509 7.67712 23.5 8.05699 23.5ZM15.2185 24.9323C15.2185 24.5524 15.3694 24.1881 15.638 23.9195C15.9066 23.6509 16.2709 23.5 16.6508 23.5H19.5154C19.8952 23.5 20.2595 23.6509 20.5282 23.9195C20.7968 24.1881 20.9477 24.5524 20.9477 24.9323V27.7969C20.9477 28.1768 20.7968 28.5411 20.5282 28.8097C20.2595 29.0783 19.8952 29.2292 19.5154 29.2292H16.6508C16.2709 29.2292 15.9066 29.0783 15.638 28.8097C15.3694 28.5411 15.2185 28.1768 15.2185 27.7969V24.9323ZM25.2446 23.5H28.1091C28.489 23.5 28.8533 23.6509 29.1219 23.9195C29.3905 24.1881 29.5414 24.5524 29.5414 24.9323V27.7969C29.5414 28.1768 29.3905 28.5411 29.1219 28.8097C28.8533 29.0783 28.489 29.2292 28.1091 29.2292H25.2446C24.8647 29.2292 24.5004 29.0783 24.2318 28.8097C23.9632 28.5411 23.8123 28.1768 23.8123 27.7969V24.9323C23.8123 24.5524 23.9632 24.1881 24.2318 23.9195C24.5004 23.6509 24.8647 23.5 25.2446 23.5Z" fill="#161616"/>
</svg>
