<svg width="20" height="28" viewBox="0 0 42 39" fill="none" xmlns="http://www.w3.org/2000/svg">
<path fill-rule="evenodd" clip-rule="evenodd" d="M14.3833 1.57212C18.7288 0.661425 23.2324 0.661426 27.5779 1.57212L28.4869 1.76263C32.2369 2.54853 35.4966 4.53358 37.7936 7.2822C38.1685 7.73085 38.0425 8.37775 37.5472 8.70573L23.8224 17.7942C22.1161 18.9241 19.845 18.9241 18.1387 17.7942L4.41392 8.70574C3.91864 8.37777 3.7926 7.73086 4.16753 7.28221C6.46454 4.53359 9.72423 2.54853 13.4743 1.76263L14.3833 1.57212ZM3.04141 11.6118C2.46669 11.2312 1.66554 11.4494 1.44796 12.0803C1.32645 12.4327 1.21774 12.7908 1.12234 13.1541C0.0282294 17.3214 0.0282293 21.6787 1.12234 25.846C2.62069 31.553 7.40531 35.9656 13.4743 37.2374L14.3833 37.428C18.7288 38.3386 23.2323 38.3386 27.5778 37.428L28.4869 37.2374C34.5558 35.9656 39.3405 31.553 40.8388 25.846C41.9329 21.6787 41.9329 17.3214 40.8388 13.1541C40.7434 12.7908 40.6347 12.4327 40.5132 12.0803C40.2956 11.4494 39.4945 11.2312 38.9197 11.6118L25.7169 20.3546C22.8731 22.2378 19.088 22.2378 16.2442 20.3546L3.04141 11.6118Z" fill="#161616"/>
</svg>
