<svg width="132" height="132" viewBox="0 0 132 132" fill="none" xmlns="http://www.w3.org/2000/svg">
<rect width="132" height="132" rx="66" fill="url(#paint0_linear_2380_138)"/>
<path d="M48.1531 53.6813H38.3047V84H31.1375V53.6813H21.3406V47.2875H48.1531V53.6813ZM79.1055 65.4891L79.1571 69.4594C79.0196 71.9688 78.7102 74.0828 78.229 75.8016C77.7477 77.5203 76.8024 79.0844 75.393 80.4938C73.0555 82.8313 69.6524 84 65.1837 84C59.9243 84 56.3149 83.3125 54.3555 81.9375C52.3962 80.5281 51.4165 78.0016 51.4165 74.3578V47.2875H65.6993C69.8243 47.2875 73.0555 48.4563 75.393 50.7937C77.2837 52.6844 78.4008 54.9875 78.7446 57.7031C78.9852 59.6281 79.1055 62.2234 79.1055 65.4891ZM70.3915 75.3375C71.0446 74.5469 71.4571 73.4641 71.629 72.0891C71.8352 70.6797 71.9383 68.4969 71.9383 65.5406C71.9383 62.5844 71.8352 60.4531 71.629 59.1469C71.4571 57.8063 71.0446 56.7406 70.3915 55.95C69.154 54.4375 67.3665 53.6813 65.029 53.6813H58.5837V73.9969C58.5837 75.3719 59.0477 76.3172 59.9758 76.8328C60.904 77.3484 62.554 77.6063 64.9258 77.6063C67.3321 77.6063 69.154 76.85 70.3915 75.3375ZM102.937 69.7687H109.588C109.588 74.4438 108.419 78.0359 106.082 80.5453C103.744 83.0547 100.444 84.3094 96.182 84.3094C86.7976 84.3094 82.1054 78.7922 82.1054 67.7578V64.6641C82.1054 55.9672 84.5117 50.5188 89.3242 48.3188C91.2148 47.425 93.5007 46.9781 96.182 46.9781C100.101 46.9781 103.28 48.0609 105.721 50.2266C108.196 52.3578 109.434 55.4516 109.434 59.5078H102.73C102.352 57.4797 101.682 55.95 100.719 54.9188C99.757 53.8875 98.2445 53.3719 96.182 53.3719C93.7757 53.3719 91.9882 54.1281 90.8195 55.6406C89.9945 56.7062 89.5132 58.5281 89.3757 61.1062C89.307 61.9313 89.2726 63.0484 89.2726 64.4578V67.6547C89.2726 71.6078 89.8226 74.3063 90.9226 75.75C92.057 77.1938 93.8101 77.9156 96.182 77.9156C98.5882 77.9156 100.238 77.2625 101.132 75.9563C102.06 74.6156 102.662 72.5531 102.937 69.7687Z" fill="white"/>
<defs>
<linearGradient id="paint0_linear_2380_138" x1="66" y1="0" x2="66" y2="132" gradientUnits="userSpaceOnUse">
<stop stop-color="#8371FA"/>
<stop offset="1" stop-color="#4B7BF1"/>
</linearGradient>
</defs>
</svg>
