<svg width="676" height="237" viewBox="0 0 676 237" fill="none" xmlns="http://www.w3.org/2000/svg">
<path d="M96.2991 75.2932H62.6121V179H38.0964V75.2932H4.58567V53.4231H96.2991V75.2932ZM202.173 115.682L202.35 129.263C201.879 137.847 200.821 145.078 199.175 150.957C197.529 156.836 194.295 162.186 189.475 167.007C181.479 175.002 169.838 179 154.553 179C136.563 179 124.217 176.648 117.515 171.945C110.813 167.124 107.462 158.482 107.462 146.018V53.4231H156.317C170.426 53.4231 181.479 57.4209 189.475 65.4164C195.942 71.8834 199.763 79.7613 200.939 89.0502C201.762 95.6348 202.173 104.512 202.173 115.682ZM172.366 149.369C174.601 146.665 176.012 142.961 176.599 138.258C177.305 133.437 177.658 125.971 177.658 115.859C177.658 105.747 177.305 98.4568 176.599 93.9887C176.012 89.403 174.601 85.758 172.366 83.0536C168.134 77.88 162.019 75.2932 154.024 75.2932H131.977V144.784C131.977 149.487 133.565 152.721 136.739 154.484C139.914 156.248 145.558 157.13 153.671 157.13C161.902 157.13 168.134 154.543 172.366 149.369ZM283.689 130.321H306.441C306.441 146.312 302.443 158.6 294.448 167.183C286.452 175.767 275.164 180.058 260.584 180.058C228.484 180.058 212.435 161.186 212.435 123.443V112.86C212.435 83.1124 220.665 64.4757 237.127 56.9505C243.594 53.8934 251.413 52.3649 260.584 52.3649C273.988 52.3649 284.865 56.0687 293.213 63.4763C301.679 70.7663 305.912 81.3487 305.912 95.2233H282.983C281.69 88.286 279.397 83.0536 276.105 79.5262C272.813 75.9987 267.639 74.235 260.584 74.235C252.354 74.235 246.239 76.8218 242.242 81.9954C239.42 85.6404 237.773 91.8722 237.303 100.691C237.068 103.513 236.95 107.334 236.95 112.155V123.09C236.95 136.612 238.832 145.842 242.594 150.78C246.474 155.719 252.471 158.188 260.584 158.188C268.815 158.188 274.459 155.954 277.516 151.486C280.691 146.9 282.748 139.845 283.689 130.321Z" fill="#2B59FF"/>
<path d="M436.305 34.5385V81.5596H430.428V34.5385H436.305ZM448.674 34.5385V39.6411H418.091V34.5385H448.674ZM460.559 31.9549V81.5596H454.842V31.9549H460.559ZM459.17 62.7641L456.845 62.6672C456.823 60.2774 457.092 58.0706 457.652 56.0468C458.233 54.0014 459.052 52.2252 460.106 50.7181C461.183 49.2111 462.464 48.0484 463.95 47.2303C465.435 46.3906 467.082 45.9708 468.891 45.9708C470.312 45.9708 471.603 46.2076 472.766 46.6813C473.929 47.1334 474.919 47.8654 475.737 48.8773C476.555 49.8892 477.18 51.2026 477.61 52.8173C478.062 54.4105 478.288 56.3589 478.288 58.6626V81.5596H472.572V58.598C472.572 56.768 472.368 55.304 471.959 54.206C471.571 53.0864 470.968 52.279 470.15 51.7839C469.354 51.2671 468.342 51.0088 467.114 51.0088C465.995 51.0088 464.951 51.321 463.982 51.9453C463.013 52.5697 462.163 53.4309 461.431 54.5289C460.72 55.6269 460.16 56.8864 459.751 58.3074C459.364 59.7068 459.17 61.1924 459.17 62.7641ZM499.312 82.2055C497.224 82.2055 495.34 81.8933 493.661 81.2689C491.981 80.6446 490.55 79.6972 489.365 78.427C488.181 77.1352 487.277 75.5097 486.653 73.5505C486.028 71.5913 485.716 69.2768 485.716 66.6071V62.6672C485.716 59.5884 486.071 56.9833 486.782 54.8519C487.514 52.7204 488.494 51.0088 489.721 49.717C490.948 48.4037 492.337 47.4564 493.887 46.8751C495.437 46.2722 497.03 45.9708 498.666 45.9708C500.862 45.9708 502.735 46.3261 504.286 47.0365C505.836 47.747 507.095 48.802 508.064 50.2014C509.033 51.6009 509.743 53.3232 510.196 55.3686C510.669 57.4139 510.906 59.7714 510.906 62.4411V65.7675H489.075V60.891H505.19V60.0836C505.104 58.2751 504.856 56.6819 504.447 55.304C504.06 53.9261 503.414 52.8496 502.509 52.0745C501.605 51.2779 500.324 50.8796 498.666 50.8796C497.611 50.8796 496.632 51.0626 495.728 51.4286C494.845 51.7731 494.08 52.3867 493.435 53.2694C492.81 54.1306 492.315 55.3255 491.949 56.8541C491.605 58.3827 491.432 60.3204 491.432 62.6672V66.6071C491.432 68.4802 491.605 70.095 491.949 71.4513C492.315 72.7862 492.843 73.895 493.531 74.7777C494.242 75.6389 495.103 76.2848 496.115 76.7154C497.148 77.1244 498.322 77.329 499.635 77.329C501.551 77.329 503.134 76.963 504.382 76.2309C505.631 75.4774 506.718 74.5193 507.644 73.3567L510.648 76.9414C510.023 77.8242 509.205 78.6746 508.193 79.4927C507.203 80.2893 505.976 80.946 504.512 81.4627C503.069 81.9579 501.336 82.2055 499.312 82.2055ZM431.849 141.56H423.84L423.904 136.489H431.849C434.669 136.489 436.962 135.951 438.727 134.875C440.493 133.777 441.795 132.162 442.635 130.03C443.475 127.877 443.895 125.218 443.895 122.054V114.012C443.895 111.515 443.658 109.362 443.184 107.553C442.71 105.745 442 104.259 441.053 103.097C440.105 101.934 438.91 101.073 437.468 100.513C436.025 99.9317 434.335 99.6411 432.398 99.6411H423.678V94.5385H432.398C435.046 94.5385 437.436 94.9583 439.567 95.798C441.698 96.6161 443.529 97.8541 445.057 99.5119C446.586 101.148 447.748 103.183 448.545 105.616C449.363 108.048 449.772 110.869 449.772 114.077V122.054C449.772 125.262 449.363 128.082 448.545 130.515C447.748 132.948 446.575 134.982 445.025 136.618C443.475 138.255 441.591 139.493 439.373 140.332C437.177 141.151 434.669 141.56 431.849 141.56ZM427.134 94.5385V141.56H421.191V94.5385H427.134ZM470.699 142.205C468.611 142.205 466.727 141.893 465.048 141.269C463.368 140.645 461.937 139.697 460.752 138.427C459.568 137.135 458.664 135.51 458.04 133.55C457.415 131.591 457.103 129.277 457.103 126.607V122.667C457.103 119.588 457.458 116.983 458.169 114.852C458.901 112.72 459.88 111.009 461.108 109.717C462.335 108.404 463.723 107.456 465.274 106.875C466.824 106.272 468.417 105.971 470.053 105.971C472.249 105.971 474.122 106.326 475.673 107.037C477.223 107.747 478.482 108.802 479.451 110.201C480.42 111.601 481.13 113.323 481.582 115.369C482.056 117.414 482.293 119.771 482.293 122.441V125.767H460.462V120.891H476.577V120.084C476.491 118.275 476.243 116.682 475.834 115.304C475.446 113.926 474.801 112.85 473.896 112.075C472.992 111.278 471.711 110.88 470.053 110.88C468.998 110.88 468.019 111.063 467.114 111.429C466.232 111.773 465.467 112.387 464.821 113.269C464.197 114.131 463.702 115.326 463.336 116.854C462.991 118.383 462.819 120.32 462.819 122.667V126.607C462.819 128.48 462.991 130.095 463.336 131.451C463.702 132.786 464.229 133.895 464.918 134.778C465.629 135.639 466.49 136.285 467.502 136.715C468.535 137.124 469.709 137.329 471.022 137.329C472.938 137.329 474.521 136.963 475.769 136.231C477.018 135.477 478.105 134.519 479.031 133.357L482.035 136.941C481.41 137.824 480.592 138.675 479.58 139.493C478.59 140.289 477.363 140.946 475.899 141.463C474.456 141.958 472.723 142.205 470.699 142.205ZM497.794 136.166L505.287 106.617H511.1L500.733 141.56H496.955L497.794 136.166ZM491.755 106.617L499.571 136.328L500.184 141.56H496.438L485.942 106.617H491.755ZM444.734 186.607H450.676C450.526 189.837 449.869 192.625 448.706 194.971C447.565 197.297 445.897 199.084 443.701 200.332C441.526 201.581 438.803 202.205 435.53 202.205C433.183 202.205 431.063 201.743 429.168 200.817C427.274 199.891 425.648 198.567 424.292 196.845C422.957 195.101 421.934 193.012 421.224 190.579C420.513 188.147 420.158 185.412 420.158 182.377V173.689C420.158 170.675 420.513 167.952 421.224 165.519C421.956 163.086 423 161.008 424.356 159.286C425.734 157.542 427.403 156.207 429.362 155.281C431.343 154.355 433.582 153.893 436.079 153.893C439.136 153.893 441.72 154.506 443.83 155.733C445.961 156.939 447.598 158.715 448.739 161.062C449.901 163.387 450.547 166.24 450.676 169.62H444.734C444.583 167.144 444.196 165.131 443.572 163.581C442.947 162.009 442.021 160.857 440.794 160.125C439.589 159.372 438.017 158.995 436.079 158.995C434.357 158.995 432.861 159.34 431.59 160.029C430.342 160.718 429.308 161.708 428.49 163C427.693 164.27 427.091 165.809 426.681 167.618C426.294 169.405 426.1 171.407 426.1 173.625V182.377C426.1 184.443 426.262 186.37 426.585 188.157C426.929 189.944 427.467 191.516 428.199 192.872C428.953 194.207 429.932 195.251 431.138 196.005C432.344 196.758 433.808 197.135 435.53 197.135C437.705 197.135 439.427 196.78 440.697 196.069C441.968 195.359 442.904 194.229 443.507 192.679C444.131 191.128 444.54 189.105 444.734 186.607ZM456.748 185.767V182.441C456.748 179.728 457.092 177.349 457.781 175.304C458.47 173.237 459.428 171.515 460.655 170.137C461.883 168.759 463.314 167.725 464.951 167.037C466.587 166.326 468.342 165.971 470.215 165.971C472.131 165.971 473.907 166.326 475.543 167.037C477.18 167.725 478.611 168.759 479.839 170.137C481.087 171.515 482.056 173.237 482.745 175.304C483.434 177.349 483.778 179.728 483.778 182.441V185.767C483.778 188.48 483.434 190.87 482.745 192.937C482.056 194.982 481.098 196.694 479.871 198.072C478.644 199.45 477.212 200.483 475.576 201.172C473.939 201.861 472.174 202.205 470.279 202.205C468.385 202.205 466.619 201.861 464.983 201.172C463.347 200.483 461.904 199.45 460.655 198.072C459.428 196.694 458.47 194.982 457.781 192.937C457.092 190.87 456.748 188.48 456.748 185.767ZM462.464 182.441V185.767C462.464 187.684 462.658 189.363 463.045 190.805C463.433 192.248 463.982 193.454 464.692 194.422C465.403 195.391 466.232 196.123 467.179 196.618C468.126 197.092 469.16 197.329 470.279 197.329C471.571 197.329 472.701 197.092 473.67 196.618C474.661 196.123 475.479 195.391 476.125 194.422C476.771 193.454 477.255 192.248 477.578 190.805C477.901 189.363 478.062 187.684 478.062 185.767V182.441C478.062 180.525 477.869 178.856 477.481 177.435C477.093 175.993 476.544 174.787 475.834 173.818C475.124 172.828 474.284 172.096 473.315 171.622C472.368 171.127 471.334 170.88 470.215 170.88C469.117 170.88 468.094 171.127 467.147 171.622C466.199 172.096 465.371 172.828 464.66 173.818C463.971 174.787 463.433 175.993 463.045 177.435C462.658 178.856 462.464 180.525 462.464 182.441ZM496.858 172.107V201.56H491.142V166.617H496.664L496.858 172.107ZM505.545 166.423L505.577 171.978C505.104 171.87 504.673 171.805 504.286 171.784C503.92 171.741 503.489 171.719 502.994 171.719C501.917 171.719 500.97 171.935 500.152 172.365C499.355 172.796 498.666 173.399 498.085 174.174C497.504 174.949 497.041 175.875 496.696 176.951C496.352 178.006 496.115 179.169 495.986 180.439L494.5 181.408C494.5 179.298 494.662 177.317 494.985 175.465C495.329 173.614 495.857 171.978 496.567 170.557C497.278 169.114 498.182 167.995 499.28 167.198C500.399 166.38 501.734 165.971 503.284 165.971C503.629 165.971 504.049 166.025 504.544 166.132C505.061 166.218 505.394 166.315 505.545 166.423ZM517.01 173.334V214.994H511.294V166.617H516.493L517.01 173.334ZM536.548 182.506V185.767C536.548 188.523 536.29 190.935 535.773 193.001C535.278 195.047 534.535 196.758 533.545 198.136C532.576 199.493 531.381 200.515 529.96 201.204C528.539 201.872 526.913 202.205 525.083 202.205C523.253 202.205 521.66 201.861 520.304 201.172C518.969 200.462 517.839 199.439 516.913 198.104C516.009 196.769 515.287 195.165 514.749 193.292C514.232 191.398 513.877 189.277 513.683 186.93V181.957C513.877 179.481 514.232 177.263 514.749 175.304C515.266 173.323 515.976 171.644 516.881 170.266C517.806 168.867 518.937 167.801 520.271 167.069C521.628 166.337 523.21 165.971 525.019 165.971C526.892 165.971 528.539 166.294 529.96 166.94C531.402 167.586 532.608 168.587 533.577 169.943C534.567 171.278 535.31 172.99 535.805 175.078C536.3 177.145 536.548 179.621 536.548 182.506ZM530.832 185.767V182.506C530.832 180.568 530.681 178.878 530.38 177.435C530.1 175.993 529.648 174.798 529.023 173.851C528.399 172.903 527.613 172.193 526.666 171.719C525.719 171.246 524.577 171.009 523.243 171.009C522.102 171.009 521.09 171.246 520.207 171.719C519.346 172.193 518.603 172.839 517.979 173.657C517.354 174.454 516.837 175.369 516.428 176.402C516.019 177.414 515.718 178.469 515.524 179.567V189.352C515.89 190.73 516.375 192.033 516.977 193.26C517.58 194.466 518.388 195.445 519.4 196.199C520.433 196.952 521.736 197.329 523.307 197.329C524.621 197.329 525.751 197.092 526.698 196.618C527.645 196.145 528.421 195.434 529.023 194.487C529.648 193.518 530.1 192.313 530.38 190.87C530.681 189.406 530.832 187.705 530.832 185.767ZM542.716 185.767V182.441C542.716 179.728 543.061 177.349 543.75 175.304C544.439 173.237 545.397 171.515 546.624 170.137C547.851 168.759 549.283 167.725 550.919 167.037C552.555 166.326 554.31 165.971 556.183 165.971C558.099 165.971 559.876 166.326 561.512 167.037C563.148 167.725 564.58 168.759 565.807 170.137C567.056 171.515 568.025 173.237 568.714 175.304C569.402 177.349 569.747 179.728 569.747 182.441V185.767C569.747 188.48 569.402 190.87 568.714 192.937C568.025 194.982 567.066 196.694 565.839 198.072C564.612 199.45 563.18 200.483 561.544 201.172C559.908 201.861 558.142 202.205 556.248 202.205C554.353 202.205 552.588 201.861 550.951 201.172C549.315 200.483 547.873 199.45 546.624 198.072C545.397 196.694 544.439 194.982 543.75 192.937C543.061 190.87 542.716 188.48 542.716 185.767ZM548.432 182.441V185.767C548.432 187.684 548.626 189.363 549.014 190.805C549.401 192.248 549.95 193.454 550.661 194.422C551.371 195.391 552.2 196.123 553.147 196.618C554.095 197.092 555.128 197.329 556.248 197.329C557.54 197.329 558.67 197.092 559.639 196.618C560.629 196.123 561.447 195.391 562.093 194.422C562.739 193.454 563.223 192.248 563.546 190.805C563.869 189.363 564.031 187.684 564.031 185.767V182.441C564.031 180.525 563.837 178.856 563.449 177.435C563.062 175.993 562.513 174.787 561.802 173.818C561.092 172.828 560.252 172.096 559.283 171.622C558.336 171.127 557.303 170.88 556.183 170.88C555.085 170.88 554.062 171.127 553.115 171.622C552.168 172.096 551.339 172.828 550.628 173.818C549.94 174.787 549.401 175.993 549.014 177.435C548.626 178.856 548.432 180.525 548.432 182.441ZM582.826 172.107V201.56H577.11V166.617H582.633L582.826 172.107ZM591.514 166.423L591.546 171.978C591.072 171.87 590.642 171.805 590.254 171.784C589.888 171.741 589.457 171.719 588.962 171.719C587.886 171.719 586.938 171.935 586.12 172.365C585.324 172.796 584.635 173.399 584.053 174.174C583.472 174.949 583.009 175.875 582.665 176.951C582.32 178.006 582.084 179.169 581.954 180.439L580.469 181.408C580.469 179.298 580.63 177.317 580.953 175.465C581.298 173.614 581.825 171.978 582.536 170.557C583.246 169.114 584.15 167.995 585.248 167.198C586.368 166.38 587.703 165.971 589.253 165.971C589.597 165.971 590.017 166.025 590.512 166.132C591.029 166.218 591.363 166.315 591.514 166.423ZM613.086 195.585V176.628C613.086 175.25 612.871 174.141 612.441 173.302C612.031 172.462 611.407 171.848 610.567 171.461C609.749 171.073 608.716 170.88 607.467 170.88C606.261 170.88 605.217 171.127 604.335 171.622C603.473 172.118 602.806 172.774 602.332 173.592C601.88 174.41 601.654 175.315 601.654 176.305H595.938C595.938 175.056 596.207 173.818 596.745 172.591C597.305 171.364 598.102 170.255 599.135 169.265C600.169 168.253 601.407 167.456 602.849 166.875C604.313 166.272 605.949 165.971 607.758 165.971C609.911 165.971 611.816 166.326 613.474 167.037C615.132 167.725 616.434 168.856 617.382 170.427C618.329 171.999 618.803 174.088 618.803 176.693V193.938C618.803 195.101 618.889 196.339 619.061 197.652C619.255 198.965 619.524 200.096 619.868 201.043V201.56H613.958C613.679 200.871 613.463 199.956 613.312 198.815C613.162 197.652 613.086 196.575 613.086 195.585ZM613.991 180.374L614.055 184.573H610.083C608.727 184.573 607.489 184.723 606.369 185.025C605.271 185.326 604.324 185.767 603.527 186.349C602.731 186.909 602.117 187.608 601.686 188.448C601.277 189.288 601.073 190.246 601.073 191.322C601.073 192.722 601.267 193.841 601.654 194.681C602.042 195.499 602.623 196.091 603.398 196.457C604.173 196.823 605.153 197.006 606.337 197.006C607.779 197.006 609.05 196.672 610.148 196.005C611.246 195.337 612.096 194.53 612.699 193.583C613.323 192.635 613.614 191.753 613.571 190.935L614.83 193.615C614.744 194.455 614.464 195.37 613.991 196.36C613.539 197.329 612.903 198.266 612.085 199.17C611.267 200.052 610.298 200.784 609.179 201.366C608.081 201.926 606.843 202.205 605.465 202.205C603.441 202.205 601.665 201.818 600.136 201.043C598.629 200.268 597.456 199.127 596.616 197.62C595.776 196.113 595.357 194.25 595.357 192.033C595.357 190.353 595.647 188.803 596.229 187.382C596.81 185.961 597.671 184.734 598.812 183.701C599.953 182.646 601.385 181.828 603.107 181.246C604.851 180.665 606.864 180.374 609.146 180.374H613.991ZM640.44 166.617V171.203H624.131V166.617H640.44ZM629.46 158.123H635.176V192.905C635.176 194.089 635.316 194.982 635.596 195.585C635.897 196.188 636.274 196.586 636.726 196.78C637.178 196.974 637.663 197.071 638.179 197.071C638.567 197.071 638.998 197.028 639.471 196.941C639.945 196.834 640.268 196.748 640.44 196.683L640.408 201.56C640.02 201.71 639.503 201.85 638.858 201.979C638.212 202.13 637.394 202.205 636.403 202.205C635.176 202.205 634.035 201.915 632.98 201.334C631.925 200.752 631.075 199.783 630.429 198.427C629.783 197.049 629.46 195.198 629.46 192.872V158.123ZM659.752 202.205C657.664 202.205 655.78 201.893 654.101 201.269C652.421 200.645 650.99 199.697 649.806 198.427C648.621 197.135 647.717 195.51 647.093 193.55C646.468 191.591 646.156 189.277 646.156 186.607V182.667C646.156 179.588 646.511 176.983 647.222 174.852C647.954 172.72 648.934 171.009 650.161 169.717C651.388 168.404 652.777 167.456 654.327 166.875C655.877 166.272 657.47 165.971 659.106 165.971C661.302 165.971 663.176 166.326 664.726 167.037C666.276 167.747 667.535 168.802 668.504 170.201C669.473 171.601 670.183 173.323 670.636 175.369C671.109 177.414 671.346 179.771 671.346 182.441V185.767H649.515V180.891H665.63V180.084C665.544 178.275 665.296 176.682 664.887 175.304C664.5 173.926 663.854 172.85 662.949 172.075C662.045 171.278 660.764 170.88 659.106 170.88C658.051 170.88 657.072 171.063 656.168 171.429C655.285 171.773 654.521 172.387 653.875 173.269C653.25 174.131 652.755 175.326 652.389 176.854C652.045 178.383 651.872 180.32 651.872 182.667V186.607C651.872 188.48 652.045 190.095 652.389 191.451C652.755 192.786 653.283 193.895 653.972 194.778C654.682 195.639 655.543 196.285 656.555 196.715C657.589 197.124 658.762 197.329 660.075 197.329C661.991 197.329 663.574 196.963 664.823 196.231C666.071 195.477 667.159 194.519 668.084 193.357L671.088 196.941C670.463 197.824 669.645 198.675 668.633 199.493C667.643 200.289 666.416 200.946 664.952 201.463C663.509 201.958 661.776 202.205 659.752 202.205Z" fill="#2B59FF"/>
<path d="M361.02 13.781H366.531C369.575 13.781 372.043 16.2486 372.043 19.2926V217.711H366.531C363.487 217.711 361.02 215.244 361.02 212.2V13.781Z" fill="#2B59FF"/>
</svg>
