<svg width="384" height="384" viewBox="0 0 384 384" fill="none" xmlns="http://www.w3.org/2000/svg">
<circle cx="192" cy="192" r="184" fill="#2B59FF" stroke="#2B59FF" stroke-width="16"/>
<circle cx="316.5" cy="230.5" r="19.5" fill="#FFB700"/>
<path d="M136.202 136.193V158.125H106.311L105.989 250.222H78.2127V158.125H48V136.193H136.202Z" fill="white"/>
<path d="M183.569 192.151C183.569 180.889 186.006 170.873 190.879 162.101C195.752 153.221 202.52 146.345 211.183 141.472C219.955 136.491 229.863 134 240.909 134C254.445 134 266.032 137.574 275.67 144.721C285.307 151.868 291.751 161.614 294.999 173.959H264.462C262.188 169.194 258.939 165.566 254.716 163.076C250.601 160.585 245.89 159.34 240.584 159.34C232.029 159.34 225.098 162.318 219.792 168.274C214.486 174.23 211.833 182.189 211.833 192.151C211.833 202.114 214.486 210.074 219.792 216.029C225.098 221.985 232.029 224.963 240.584 224.963C245.89 224.963 250.601 223.718 254.716 221.227C258.939 218.736 262.188 215.109 264.462 210.344H294.999C291.751 222.689 285.307 232.435 275.67 239.582C266.032 246.621 254.445 250.141 240.909 250.141C229.863 250.141 219.955 247.704 211.183 242.831C202.52 237.85 195.752 230.973 190.879 222.202C186.006 213.43 183.569 203.413 183.569 192.151Z" fill="white"/>
<path fill-rule="evenodd" clip-rule="evenodd" d="M183.509 143.34C174.521 138.576 164.017 136.193 151.997 136.193H109.276V158.125H137.053V158.125L137.064 158.125H137.239V158.127L150.124 158.262C160.628 158.262 168.89 162.833 174.737 168.68C180.585 174.528 183.509 182.704 183.509 193.208C183.509 203.712 180.585 211.834 174.737 217.573C168.89 223.312 160.714 226.182 150.21 226.182H137.053V166.623H109.276V250.222H151.997C163.908 250.222 174.358 247.84 183.346 243.075C192.443 238.31 199.427 231.596 204.3 222.933C209.282 214.27 211.773 204.362 211.773 193.208C211.773 181.946 209.282 172.037 204.3 163.482C199.427 154.819 192.497 148.105 183.509 143.34Z" fill="white"/>
</svg>
