<svg width="16" height="25" viewBox="0 0 29 37" fill="none" xmlns="http://www.w3.org/2000/svg">
<path d="M14.4042 0.321899C9.4877 0.321899 5.50212 4.27495 5.50212 9.15127C5.50212 14.0276 9.4877 17.9806 14.4042 17.9806C19.3206 17.9806 23.3062 14.0276 23.3062 9.15127C23.3062 4.27495 19.3206 0.321899 14.4042 0.321899Z" fill="#161616"/>
<path d="M19.6576 21.9087C16.1773 21.3579 12.631 21.3579 9.15077 21.9087L8.77773 21.9678C3.87393 22.744 0.265625 26.9393 0.265625 31.8647C0.265625 34.5231 2.43844 36.6782 5.11874 36.6782H23.6896C26.3699 36.6782 28.5427 34.5231 28.5427 31.8647C28.5427 26.9393 24.9344 22.744 20.0306 21.9678L19.6576 21.9087Z" fill="#161616"/>
</svg>
